<?xml version="1.0" encoding="UTF-8"?>
<svg xmlns="http://www.w3.org/2000/svg" xmlns:xlink="http://www.w3.org/1999/xlink" width="15px" height="15px" viewBox="0 0 15 15" version="1.1">
<g id="surface1">
<path style=" stroke:none;fill-rule:nonzero;fill:white;fill-opacity:1;" d="M 0 1.875 C 0 2.910156 0.839844 3.75 1.875 3.75 C 2.910156 3.75 3.75 2.910156 3.75 1.875 C 3.75 0.839844 2.910156 0 1.875 0 C 0.839844 0 0 0.839844 0 1.875 M 5.625 13.125 C 5.625 14.160156 6.464844 15 7.5 15 C 8.535156 15 9.375 14.160156 9.375 13.125 C 9.375 12.089844 8.535156 11.25 7.5 11.25 C 6.464844 11.25 5.625 12.089844 5.625 13.125 M 5.625 7.5 C 5.625 8.535156 6.464844 9.375 7.5 9.375 C 8.535156 9.375 9.375 8.535156 9.375 7.5 C 9.375 6.464844 8.535156 5.625 7.5 5.625 C 6.464844 5.625 5.625 6.464844 5.625 7.5 M 5.625 1.875 C 5.625 2.910156 6.464844 3.75 7.5 3.75 C 8.535156 3.75 9.375 2.910156 9.375 1.875 C 9.375 0.839844 8.535156 0 7.5 0 C 6.464844 0 5.625 0.839844 5.625 1.875 M 11.25 1.875 C 11.25 2.910156 12.089844 3.75 13.125 3.75 C 14.160156 3.75 15 2.910156 15 1.875 C 15 0.839844 14.160156 0 13.125 0 C 12.089844 0 11.25 0.839844 11.25 1.875 "/>
</g>
</svg>
